<?xml version="1.0" encoding="UTF-8"?>
<!DOCTYPE svg  PUBLIC '-//W3C//DTD SVG 1.1//EN'  'http://www.w3.org/Graphics/SVG/1.1/DTD/svg11.dtd'>
<svg enable-background="new 0 0 220 54" version="1.1" viewBox="0 0 220 54" xml:space="preserve" xmlns="http://www.w3.org/2000/svg">
	<g fill="#fff">
		<path d="m24.007 15.339h10.444c2.571 0 4.595 0.706 5.881 1.992 1.028 1.029 1.542 2.282 1.542 3.824v0.064c0 2.538-1.349 3.951-2.957 4.853 2.603 0.996 4.21 2.506 4.21 5.528v0.062c0 4.116-3.342 6.172-8.42 6.172h-10.7v-22.495zm9.385 9.094c2.184 0 3.567-0.707 3.567-2.378v-0.065c0-1.478-1.158-2.313-3.246-2.313h-4.885v4.756h4.564zm1.316 9.061c2.186 0 3.503-0.771 3.503-2.441v-0.066c0-1.508-1.124-2.441-3.664-2.441h-5.72v4.949h5.881z"/>
		<path d="m43.449 29.316v-0.064c0-4.948 3.985-8.965 9.351-8.965 5.335 0 9.287 3.953 9.287 8.9v0.064c0 4.951-3.985 8.967-9.351 8.967-5.334 1e-3 -9.287-3.951-9.287-8.902zm13.818 0v-0.064c0-2.538-1.832-4.756-4.531-4.756-2.795 0-4.467 2.153-4.467 4.691v0.064c0 2.539 1.831 4.756 4.531 4.756 2.796 1e-3 4.467-2.152 4.467-4.691z"/>
		<path d="m63.019 29.316v-0.064c0-4.948 3.985-8.965 9.351-8.965 5.335 0 9.288 3.953 9.288 8.9v0.064c0 4.951-3.985 8.967-9.352 8.967-5.333 1e-3 -9.287-3.951-9.287-8.902zm13.819 0v-0.064c0-2.538-1.833-4.756-4.532-4.756-2.796 0-4.466 2.153-4.466 4.691v0.064c0 2.539 1.832 4.756 4.53 4.756 2.796 1e-3 4.468-2.152 4.468-4.691z"/>
		<path d="m83.104 14.375h4.885v12.5l5.719-6.266h5.851l-6.559 6.781 6.781 10.445h-5.591l-4.498-7.039-1.703 1.799v5.24h-4.885v-23.46z"/>
		<path d="m100.87 15.339h10.445c2.569 0 4.595 0.706 5.879 1.992 1.031 1.029 1.545 2.282 1.545 3.824v0.064c0 2.538-1.35 3.951-2.957 4.853 2.6 0.996 4.209 2.506 4.209 5.528v0.062c0 4.116-3.34 6.172-8.419 6.172h-10.702v-22.495zm9.385 9.094c2.184 0 3.566-0.707 3.566-2.378v-0.065c0-1.478-1.154-2.313-3.245-2.313h-4.884v4.756h4.563zm1.317 9.061c2.185 0 3.501-0.771 3.501-2.441v-0.066c0-1.508-1.123-2.441-3.662-2.441h-5.719v4.949h5.88z"/>
		<path d="m120.76 32.884v-0.064c0-3.762 2.861-5.496 6.943-5.496 1.736 0 2.986 0.289 4.209 0.707v-0.288c0-2.025-1.252-3.15-3.695-3.15-1.863 0-3.184 0.354-4.756 0.932l-1.221-3.727c1.896-0.836 3.758-1.383 6.684-1.383 2.668 0 4.597 0.707 5.817 1.929 1.284 1.285 1.86 3.18 1.86 5.494v9.996h-4.722v-1.864c-1.19 1.317-2.829 2.185-5.206 2.185-3.243-1e-3 -5.913-1.864-5.913-5.271zm11.218-1.124v-0.867c-0.836-0.387-1.932-0.643-3.119-0.643-2.088 0-3.374 0.836-3.374 2.377v0.063c0 1.317 1.095 2.089 2.669 2.089 2.28 0 3.824-1.25 3.824-3.019z"/>
		<path d="m143.29 35.585v2.249h-4.885v-23.459h4.885v8.708c1.188-1.607 2.828-2.795 5.367-2.795 4.017 0 7.84 3.15 7.84 8.9v0.064c0 5.751-3.759 8.902-7.84 8.902-2.603 0-4.212-1.19-5.367-2.569zm8.322-6.333v-0.064c0-2.858-1.93-4.755-4.211-4.755s-4.176 1.896-4.176 4.755v0.064c0 2.86 1.895 4.756 4.176 4.756s4.211-1.865 4.211-4.756z"/>
		<path d="m156.66 41.883l1.639-3.537c0.646 0.387 1.449 0.678 2.092 0.678 0.834 0 1.283-0.258 1.701-1.126l-6.748-17.289h5.172l3.924 11.729 3.76-11.729h5.076l-6.62 17.644c-1.316 3.502-2.729 4.818-5.655 4.818-1.769-1e-3 -3.083-0.45-4.341-1.188z"/>
	</g>
	<path d="m173.68 20.464h1.344v0.268h-0.512v1.343h-0.323v-1.343h-0.509v-0.268zm3.287 0h-0.469l-0.277 0.8c-0.029 0.112-0.069 0.255-0.107 0.397h-8e-3c-0.038-0.168-0.068-0.285-0.107-0.41l-0.273-0.788h-0.488l-0.117 1.611h0.309l0.059-0.946c6e-3 -0.144 0.014-0.302 0.014-0.452h0.016c0.034 0.142 0.09 0.336 0.117 0.455l0.285 0.919h0.333l0.29-0.894c0.047-0.147 0.097-0.338 0.139-0.48h0.016c6e-3 0.177 6e-3 0.325 0.013 0.452l0.058 0.946h0.323l-0.126-1.61z" fill="#fff"/>
		<polygon points="8.769 37.327 12.669 37.781 15.41 18.192 11.509 17.739" fill="#F69A28"/>
		<polygon points="16.503 37.781 20.434 37.781 20.434 15.292 16.503 15.292" fill="#BCCA52"/>
		<polygon points="0.424 36.689 4.181 37.781 9.605 22.458 5.848 21.37" fill="#77BED7"/>
</svg>
